<svg aria-hidden="true" style="width:0;height:0;position:absolute;overflow:hidden" xmlns="http://www.w3.org/2000/svg"><defs><symbol id="icon-arrow-left" viewBox="0 0 19 32"><path d="m.511 17.249 14.241 14.24c.317.316.755.511 1.238.511s.921-.195 1.238-.512l1.049-1.049a1.75 1.75 0 0 0 0-2.476L6.32 16.006 18.29 4.035c.316-.317.511-.755.511-1.238s-.195-.921-.511-1.238L17.241.511C16.924.195 16.486 0 16.003 0s-.921.195-1.238.512L.511 14.765c-.315.319-.51.758-.51 1.242s.195.923.51 1.242z"/></symbol><symbol id="icon-arrow-right" viewBox="0 0 19 32"><path d="M18.289 14.751 4.048.511C3.731.195 3.293 0 2.81 0s-.921.195-1.238.512L.523 1.561a1.75 1.75 0 0 0 0 2.476L12.48 15.994.51 27.965c-.316.317-.511.755-.511 1.238s.195.921.511 1.238l1.049 1.048c.317.316.755.511 1.238.511s.921-.195 1.238-.512l14.254-14.253c.315-.319.51-.758.51-1.242s-.195-.923-.51-1.242z"/></symbol><symbol id="icon-check" viewBox="0 0 41 32"><path d="M15.78 31.383c-.381.38-.906.615-1.487.615s-1.106-.235-1.487-.615L.923 19.504c-.572-.571-.925-1.361-.925-2.232s.354-1.661.925-2.232l1.487-1.487c.571-.572 1.361-.925 2.232-.925s1.661.354 2.232.925l7.418 7.418L34.334.929c.571-.572 1.361-.925 2.232-.925s1.661.354 2.232.925l1.487 1.487c.572.571.925 1.361.925 2.232s-.354 1.661-.925 2.232z"/></symbol><symbol id="icon-close" viewBox="0 0 32 32"><path d="m21.28 16 9.9-9.9c.506-.507.82-1.206.82-1.979s-.313-1.473-.82-1.979L29.86.822c-.507-.507-1.207-.82-1.98-.82s-1.473.313-1.98.82l-9.9 9.9L6.101.821C5.594.315 4.895.001 4.122.001s-1.473.313-1.979.82L.822 2.141c-.507.507-.82 1.207-.82 1.98s.313 1.473.82 1.98l9.9 9.9-9.899 9.9c-.507.507-.82 1.207-.82 1.98s.313 1.473.82 1.98l1.32 1.32c.507.506 1.206.82 1.979.82s1.473-.313 1.979-.82l9.899-9.9 9.899 9.9c.507.507 1.207.82 1.98.82s1.473-.313 1.98-.82l1.32-1.32c.507-.507.82-1.207.82-1.98s-.313-1.473-.82-1.98z"/></symbol><symbol id="icon-facebook" viewBox="0 0 32 32"><path d="M32.195 16.098c0-8.89-7.207-16.097-16.098-16.097S-.001 7.208-.001 16.099c0 8.003 5.84 14.641 13.49 15.887l.093.012V20.752H9.494v-4.655h4.088v-3.549c0-4.034 2.404-6.263 6.08-6.263 1.289.018 2.536.133 3.753.336l-.144-.02v3.965h-2.03a2.326 2.326 0 0 0-2.634 2.522l-.001-.009v3.019h4.464l-.714 4.655h-3.751V32c7.745-1.258 13.587-7.898 13.588-15.902z"/></symbol><symbol id="icon-instagram" viewBox="0 0 32 32"><path d="M16 0c-4.343 0-4.889.02-6.596.096-1.402.03-2.733.3-3.965.77L5.52.839a7.873 7.873 0 0 0-2.829 1.849l-.001.001A7.82 7.82 0 0 0 .858 5.466l-.018.053A11.517 11.517 0 0 0 .097 9.39v.012c-.081 1.707-.096 2.253-.096 6.596s.02 4.889.096 6.596c.03 1.403.301 2.733.771 3.965l-.027-.081a7.874 7.874 0 0 0 1.848 2.833l.001.001a7.834 7.834 0 0 0 2.777 1.827l.054.018c1.151.443 2.481.714 3.871.744h.013c1.707.08 2.25.096 6.596.096s4.889-.02 6.596-.096a11.816 11.816 0 0 0 3.965-.771l-.081.027a8.229 8.229 0 0 0 4.66-4.624l.019-.055c.443-1.151.714-2.481.744-3.871v-.013c.08-1.707.096-2.25.096-6.596s-.02-4.889-.096-6.596a11.816 11.816 0 0 0-.771-3.965l.027.081a7.893 7.893 0 0 0-1.844-2.829l-.001-.001A7.8 7.8 0 0 0 26.534.856l-.053-.018A11.517 11.517 0 0 0 22.61.095h-.012c-1.707-.081-2.25-.096-6.596-.096zm0 2.879c4.27 0 4.78.021 6.466.094a8.78 8.78 0 0 1 3.03.574l-.061-.02a5.295 5.295 0 0 1 3.022 3.001l.012.036c.337.881.538 1.9.55 2.964v.005c.076 1.688.093 2.195.093 6.466s-.02 4.78-.099 6.466a9.001 9.001 0 0 1-.581 3.031l.021-.062a5.11 5.11 0 0 1-1.197 1.842l-.001.001a4.992 4.992 0 0 1-1.803 1.181l-.034.011a8.7 8.7 0 0 1-2.975.55h-.005c-1.699.076-2.199.093-6.478.093s-4.782-.02-6.478-.099a9.081 9.081 0 0 1-3.044-.581l.062.021a4.98 4.98 0 0 1-1.837-1.197l-.001-.001a4.852 4.852 0 0 1-1.189-1.807l-.011-.034a8.884 8.884 0 0 1-.56-2.972v-.009c-.061-1.681-.082-2.199-.082-6.458s.021-4.782.082-6.482a9.065 9.065 0 0 1 .581-3.042l-.021.062A4.776 4.776 0 0 1 4.66 4.678l.002-.002a4.741 4.741 0 0 1 1.806-1.187l.033-.01a8.656 8.656 0 0 1 2.954-.56h.007c1.7-.061 2.2-.08 6.478-.08l.061.04zm0 4.904a8.216 8.216 0 1 0 8.216 8.216A8.216 8.216 0 0 0 16 7.783zm0 13.549a5.333 5.333 0 1 1 5.333-5.333v.002a5.332 5.332 0 0 1-5.332 5.332H16zM26.461 7.46v.001a1.92 1.92 0 1 1-1.92-1.92h.006a1.92 1.92 0 0 1 1.914 1.919z"/></symbol><symbol id="icon-youtube" viewBox="0 0 45 32"><path d="M44.468 4.998A5.731 5.731 0 0 0 40.493.965l-.04-.01C36.912 0 22.71 0 22.71 0S8.508 0 4.965.955A5.732 5.732 0 0 0 .96 4.958l-.009.04c-.95 3.566-.95 11.003-.95 11.003s0 7.443.95 11.003a5.731 5.731 0 0 0 3.972 4.032l.04.01c3.541.955 17.743.955 17.743.955s14.202 0 17.745-.955a5.728 5.728 0 0 0 4.006-4.003l.009-.04c.948-3.566.948-11.003.948-11.003s.003-7.436-.946-11.002zM18.063 22.752V9.248l11.871 6.753z"/></symbol></defs></svg>