<svg aria-hidden="true" style="position: absolute; width: 0; height: 0; overflow: hidden;" version="1.1" xmlns="http://www.w3.org/2000/svg" xmlns:xlink="http://www.w3.org/1999/xlink">
<defs>
<symbol id="icon-arrow-left" viewBox="0 0 19 32">
<path d="M0.511 17.249l14.241 14.24c0.317 0.316 0.755 0.511 1.238 0.511s0.921-0.195 1.238-0.512l1.049-1.049c0.316-0.317 0.512-0.755 0.512-1.238s-0.196-0.921-0.512-1.238l-11.957-11.957 11.97-11.971c0.316-0.317 0.511-0.755 0.511-1.238s-0.195-0.921-0.511-1.238l-1.049-1.048c-0.317-0.316-0.755-0.511-1.238-0.511s-0.921 0.195-1.238 0.512l-14.254 14.253c-0.315 0.319-0.51 0.758-0.51 1.242s0.195 0.923 0.51 1.242l-0-0z"></path>
</symbol>
<symbol id="icon-arrow-right" viewBox="0 0 19 32">
<path d="M18.289 14.751l-14.241-14.24c-0.317-0.316-0.755-0.511-1.238-0.511s-0.921 0.195-1.238 0.512l-1.049 1.049c-0.316 0.317-0.512 0.755-0.512 1.238s0.196 0.921 0.512 1.238l11.957 11.957-11.97 11.971c-0.316 0.317-0.511 0.755-0.511 1.238s0.195 0.921 0.511 1.238l1.049 1.048c0.317 0.316 0.755 0.511 1.238 0.511s0.921-0.195 1.238-0.512l14.254-14.253c0.315-0.319 0.51-0.758 0.51-1.242s-0.195-0.923-0.51-1.242l0 0z"></path>
</symbol>
<symbol id="icon-check" viewBox="0 0 41 32">
<path d="M15.78 31.383c-0.381 0.38-0.906 0.615-1.487 0.615s-1.106-0.235-1.487-0.615l-11.883-11.879c-0.572-0.571-0.925-1.361-0.925-2.232s0.354-1.661 0.925-2.232l1.487-1.487c0.571-0.572 1.361-0.925 2.232-0.925s1.661 0.354 2.232 0.925l7.418 7.418 20.042-20.042c0.571-0.572 1.361-0.925 2.232-0.925s1.661 0.354 2.232 0.925l1.487 1.487c0.572 0.571 0.925 1.361 0.925 2.232s-0.354 1.661-0.925 2.232v0z"></path>
</symbol>
<symbol id="icon-close" viewBox="0 0 32 32">
<path d="M21.28 16l9.9-9.9c0.506-0.507 0.82-1.206 0.82-1.979s-0.313-1.473-0.82-1.979l-1.32-1.32c-0.507-0.507-1.207-0.82-1.98-0.82s-1.473 0.313-1.98 0.82l-9.9 9.9-9.899-9.901c-0.507-0.506-1.206-0.82-1.979-0.82s-1.473 0.313-1.979 0.82l-1.321 1.32c-0.507 0.507-0.82 1.207-0.82 1.98s0.313 1.473 0.82 1.98l9.9 9.9-9.899 9.9c-0.507 0.507-0.82 1.207-0.82 1.98s0.313 1.473 0.82 1.98l1.32 1.32c0.507 0.506 1.206 0.82 1.979 0.82s1.473-0.313 1.979-0.82l9.899-9.9 9.899 9.9c0.507 0.507 1.207 0.82 1.98 0.82s1.473-0.313 1.98-0.82l1.32-1.32c0.507-0.507 0.82-1.207 0.82-1.98s-0.313-1.473-0.82-1.98v0z"></path>
</symbol>
<symbol id="icon-facebook" viewBox="0 0 32 32">
<path d="M32.195 16.098c-0-8.89-7.207-16.097-16.098-16.097s-16.098 7.207-16.098 16.098c0 8.003 5.84 14.641 13.49 15.887l0.093 0.012v-11.246h-4.088v-4.655h4.088v-3.549c0-4.034 2.404-6.263 6.080-6.263 1.289 0.018 2.536 0.133 3.753 0.336l-0.144-0.020v3.965h-2.030c-0.096-0.014-0.206-0.022-0.318-0.022-1.285 0-2.326 1.042-2.326 2.326 0 0.074 0.003 0.146 0.010 0.218l-0.001-0.009v3.019h4.464l-0.714 4.655h-3.751v11.247c7.745-1.258 13.587-7.898 13.588-15.902v-0z"></path>
</symbol>
<symbol id="icon-instagram" viewBox="0 0 32 32">
<path d="M16 0c-4.343 0-4.889 0.020-6.596 0.096-1.402 0.030-2.733 0.3-3.965 0.77l0.081-0.027c-1.108 0.426-2.052 1.055-2.829 1.849l-0.001 0.001c-0.796 0.778-1.425 1.722-1.832 2.777l-0.018 0.053c-0.444 1.151-0.714 2.481-0.743 3.871l-0 0.012c-0.081 1.707-0.096 2.253-0.096 6.596s0.020 4.889 0.096 6.596c0.030 1.403 0.301 2.733 0.771 3.965l-0.027-0.081c0.425 1.109 1.054 2.055 1.848 2.833l0.001 0.001c0.778 0.793 1.722 1.421 2.777 1.827l0.054 0.018c1.151 0.443 2.481 0.714 3.871 0.744l0.013 0c1.707 0.080 2.25 0.096 6.596 0.096s4.889-0.020 6.596-0.096c1.403-0.031 2.733-0.301 3.965-0.771l-0.081 0.027c2.156-0.85 3.83-2.524 4.66-4.624l0.019-0.055c0.443-1.151 0.714-2.481 0.744-3.871l0-0.013c0.080-1.707 0.096-2.25 0.096-6.596s-0.020-4.889-0.096-6.596c-0.031-1.403-0.301-2.733-0.771-3.965l0.027 0.081c-0.425-1.107-1.052-2.051-1.844-2.829l-0.001-0.001c-0.779-0.797-1.724-1.426-2.781-1.832l-0.053-0.018c-1.151-0.444-2.481-0.714-3.871-0.743l-0.012-0c-1.707-0.081-2.25-0.096-6.596-0.096zM16 2.879c4.27 0 4.78 0.021 6.466 0.094 1.070 0.013 2.088 0.215 3.030 0.574l-0.061-0.020c1.401 0.547 2.488 1.635 3.022 3.001l0.012 0.036c0.337 0.881 0.538 1.9 0.55 2.964l0 0.005c0.076 1.688 0.093 2.195 0.093 6.466s-0.020 4.78-0.099 6.466c-0.020 1.071-0.224 2.089-0.581 3.031l0.021-0.062c-0.275 0.721-0.682 1.336-1.197 1.842l-0.001 0.001c-0.504 0.515-1.117 0.922-1.803 1.181l-0.034 0.011c-0.884 0.337-1.907 0.538-2.975 0.55l-0.005 0c-1.699 0.076-2.199 0.093-6.478 0.093s-4.782-0.020-6.478-0.099c-1.075-0.020-2.097-0.224-3.044-0.581l0.062 0.021c-0.721-0.271-1.335-0.68-1.837-1.197l-0.001-0.001c-0.523-0.502-0.932-1.117-1.189-1.807l-0.011-0.034c-0.337-0.884-0.54-1.905-0.56-2.972l-0-0.009c-0.061-1.681-0.082-2.199-0.082-6.458s0.021-4.782 0.082-6.482c0.020-1.075 0.224-2.096 0.581-3.042l-0.021 0.062c0.265-0.723 0.675-1.338 1.198-1.835l0.002-0.002c0.499-0.525 1.115-0.934 1.806-1.187l0.033-0.010c0.878-0.339 1.893-0.543 2.954-0.56l0.007-0c1.7-0.061 2.2-0.080 6.478-0.080l0.061 0.040zM16 7.783c-4.537 0-8.216 3.678-8.216 8.216s3.678 8.216 8.216 8.216c4.537 0 8.216-3.678 8.216-8.216v0c0-4.537-3.678-8.216-8.216-8.216v0zM16 21.332c-2.945 0-5.333-2.388-5.333-5.333s2.388-5.333 5.333-5.333c2.945 0 5.333 2.388 5.333 5.333v0c0 0.001 0 0.001 0 0.002 0 2.945-2.387 5.332-5.332 5.332-0 0-0.001 0-0.001 0h0zM26.461 7.46c0 0 0 0.001 0 0.001 0 1.060-0.86 1.92-1.92 1.92s-1.92-0.86-1.92-1.92c0-1.060 0.86-1.92 1.92-1.92 0.002 0 0.004 0 0.006 0h-0c1.057 0.004 1.913 0.861 1.914 1.919v0z"></path>
</symbol>
<symbol id="icon-youtube" viewBox="0 0 45 32">
<path d="M44.468 4.998c-0.535-1.971-2.050-3.494-3.975-4.033l-0.040-0.010c-3.541-0.955-17.743-0.955-17.743-0.955s-14.202 0-17.745 0.955c-1.965 0.549-3.479 2.072-4.005 4.003l-0.009 0.040c-0.95 3.566-0.95 11.003-0.95 11.003s0 7.443 0.95 11.003c0.535 1.97 2.048 3.492 3.972 4.032l0.040 0.010c3.541 0.955 17.743 0.955 17.743 0.955s14.202 0 17.745-0.955c1.966-0.548 3.481-2.072 4.006-4.003l0.009-0.040c0.948-3.566 0.948-11.003 0.948-11.003s0.003-7.436-0.946-11.002zM18.063 22.752v-13.504l11.871 6.753z"></path>
</symbol>
</defs>
</svg>
